<svg width="658" height="1080" viewBox="0 0 658 1080" fill="none" xmlns="http://www.w3.org/2000/svg">
<path d="M0 289.35C0 289.35 98.6357 214.22 184.394 222.44C270.152 230.66 327.331 0 327.331 0H0V289.35Z" fill="#8690FF"/>
<path d="M0 608.65C0 608.65 84.151 447.43 198.499 463.08C312.846 478.73 238.144 527.25 433.292 716.65C628.439 906.05 207.645 895.09 207.645 895.09C207.645 895.09 8.85442 914.91 0 848.13V608.65Z" fill="#8690FF"/>
<path d="M283.877 361.35C283.877 361.35 119.218 194.37 215.272 153.43C311.327 112.49 399.754 189.18 399.754 189.18C399.754 189.18 562.893 314.4 474.466 416.14C386.039 517.88 178.686 718.23 227.468 524.14C276.25 330.05 294.046 431.26 283.877 361.35Z" fill="#A9C0FF"/>
<path d="M0 777.7C0 777.7 132.943 661.87 251.869 796.48C370.794 931.09 400.475 927.96 500.737 910.74C601 893.52 683.339 1066.13 610.156 1080H0V777.7Z" fill="#A9C0FF"/>
<path d="M0 234.57C0 234.57 163.432 134.4 264.064 171.96C364.697 209.52 375.363 146.92 395.186 96.83C414.998 46.74 375.363 0 375.363 0" stroke="black" stroke-width="2" stroke-miterlimit="10"/>
<path d="M262.535 449C262.535 449 343.345 364.48 294.553 289.35C245.761 214.22 265.584 112.48 430.243 178.22C594.902 243.96 608.627 411.44 553.737 427.09C498.847 442.74 389.078 533.52 334.188 510.05C279.309 486.57 246.258 469.49 262.535 449Z" stroke="black" stroke-width="2" stroke-miterlimit="10"/>
<path d="M0 840.3C0 840.3 245.761 682.21 327.331 769.87C408.901 857.53 368.447 985.87 500.737 951.44C633.027 917 678.77 980.04 646.752 1080" stroke="black" stroke-width="2" stroke-miterlimit="10"/>
<path d="M0 802.29C0 802.29 149.717 773 134.462 652.48C119.208 531.96 216.792 550.74 227.468 450.57C238.144 350.4 108.649 372.54 38.4081 394.22C9.25379 403.22 0 417.7 0 417.7" stroke="black" stroke-width="2" stroke-miterlimit="10"/>
</svg>
