<svg
            width="396"
            height="1082"
            viewBox="0 0 396 1082"
            fill="none"
            xmlns="http://www.w3.org/2000/svg"
          >
            <path
              d="M26.9589 1081C26.9589 1081 -5.05918 871.04 84.8974 780.26C174.854 689.48 263.281 716.09 260.232 604.96C257.183 493.83 394.101 556.44 394.101 556.44V1081H26.9589Z"
              fill="#8690FF"
            />
            <path
              d="M2.55812 1C2.55812 1 -21.453 159.37 77.6502 154.42C176.753 149.47 149.314 213.65 211.82 223.04C274.327 232.43 270.061 327.62 327.697 323.07C385.334 318.52 394.101 254.35 394.101 254.35V1H2.55812Z"
              fill="#A9C0FF"
            />
            <path
              d="M130.465 234.52C130.465 234.52 299.702 319.04 183.825 428.61C67.9483 538.18 307.32 515.69 330.191 480.76C353.062 445.83 388.675 477.79 394.091 418.7V172.36C394.091 172.36 35.9399 157.83 130.465 234.52Z"
              fill="#8690FF"
            />
            <path
              d="M34.5762 1C34.5762 1 -26.4111 119.74 159.6 111.91C345.611 104.08 332.811 177.65 394.091 208.95"
              stroke="black"
              stroke-width="2"
              stroke-miterlimit="10"
            />
            <path
              d="M395.581 451.57C395.581 451.57 187.049 503.22 248.037 420.27C309.024 337.32 267.139 246.53 209.56 227.75C151.973 208.96 164.178 44.61 270.899 90C377.619 135.39 395.571 136.96 395.571 136.96"
              stroke="black"
              stroke-width="2"
              stroke-miterlimit="10"
            />
            <path
              d="M94.044 1081C94.044 1081 42.2033 968.09 110.818 919.57C179.422 871.05 119.487 749.08 93.0505 680.93C66.6041 612.78 255.021 496.01 394.11 528.88"
              stroke="black"
              stroke-width="2"
              stroke-miterlimit="10"
            />
          </svg>